<svg width="41" height="39" viewBox="0 0 41 39" fill="none" xmlns="http://www.w3.org/2000/svg"><path d="M24.146 33.126a2.516 2.516 0 001.175-1.545 2.578 2.578 0 00-.264-1.94l-1.28-2.22a2.578 2.578 0 00-1.55-1.197 2.517 2.517 0 00-1.925.245c-4.385 2.532-6.948-1.907-8.23-4.126-1.28-2.22-3.843-6.658.543-9.19a2.517 2.517 0 001.175-1.545 2.579 2.579 0 00-.264-1.94L12.245 7.45a2.579 2.579 0 00-1.548-1.198 2.517 2.517 0 00-1.926.245C3.289 9.66 1.28 13.779 7.687 24.875s10.977 11.416 16.459 8.251z" stroke="#1F2B6C" stroke-width="2" stroke-linecap="round" stroke-linejoin="round"/><path d="M35.816 23.962a17.616 17.616 0 00-1.805-13.246A17.617 17.617 0 0023.442 2.53m5.66 19.59a10.5 10.5 0 00.245-4.073 10.602 10.602 0 00-4.017-6.957 10.504 10.504 0 00-3.65-1.825m.745 11a3.525 3.525 0 00-.361-2.65 3.526 3.526 0 00-2.115-1.64" stroke="#159EEC" stroke-width="2" stroke-linecap="round" stroke-linejoin="round"/></svg>